v -0.062000000 6.791500000 0.000000000
v 0.062000000 6.791500000 0.000000000
v 0.062000000 6.791500000 3.000000000
v -0.062000000 6.791500000 3.000000000
v -0.062000000 -0.791500000 0.000000000
v 0.062000000 -0.791500000 0.000000000
v 0.062000000 -0.791500000 3.000000000
v -0.062000000 -0.791500000 3.000000000
v -0.062000000 4.414000000 2.300000000
v 0.062000000 4.414000000 2.300000000
v 0.062000000 4.414000000 0.005000000
v -0.062000000 4.414000000 0.005000000
v 0.062000000 5.731500000 0.005000000
v -0.062000000 5.731500000 0.005000000
v 0.062000000 5.731500000 2.300000000
v -0.062000000 5.731500000 2.300000000
v -0.062000000 0.268500000 2.300000000
v 0.062000000 0.268500000 2.300000000
v 0.062000000 0.268500000 0.005000000
v -0.062000000 0.268500000 0.005000000
v 0.062000000 1.586000000 0.005000000
v -0.062000000 1.586000000 0.005000000
v 0.062000000 1.586000000 2.300000000
v -0.062000000 1.586000000 2.300000000
f 2 1 4
f 3 2 4
f 8 5 6
f 8 6 7
f 5 1 2
f 5 2 6
f 3 4 8
f 7 3 8
f 12 9 10
f 12 10 11
f 14 12 11
f 14 11 13
f 16 14 13
f 16 13 15
f 9 16 15
f 9 15 10
f 20 17 18
f 20 18 19
f 22 20 19
f 22 19 21
f 24 22 21
f 24 21 23
f 17 24 23
f 17 23 18
f 1 16 4
f 9 4 16
f 14 16 1
f 8 24 17
f 22 9 12
f 22 24 9
f 5 17 20
f 5 8 17
f 8 4 9
f 8 9 24
f 1 5 20
f 1 20 22
f 1 22 12
f 1 12 14
f 3 15 2
f 15 3 10
f 2 15 13
f 18 23 7
f 11 10 21
f 10 23 21
f 19 18 6
f 18 7 6
f 10 3 7
f 23 10 7
f 19 6 2
f 21 19 2
f 11 21 2
f 13 11 2
